#!OML:ASF I:\Actors\actors\Patient Classification 1\Patient 1\Session 1\Subject1.ASF
:FULLY-SPECIFIED
:DEGREES
1681
root -0.807327 17.4984 7.75911 7.16236 -1.83908 -7.06212
lowerback 2.03926 1.90785 7.13675
upperback -9.77805 3.30591 1.45404
thorax -11.374 1.03359 -2.78554
lowerneck -8.69987 -4.94094 -4.56975
upperneck 32.6888 -8.04358 5.25833
head 12.7002 -3.51655 1.73567
rclavicle -3.42904e-015 -6.16232e-015
rhumerus -60.93 -43.7414 -41.2421
rradius 17.6107
rwrist 61.5014
rhand 3.45777 -31.8632
rfingers 7.12502
rthumb 28.8979 660.356
lclavicle -3.42904e-015 -6.16232e-015
lhumerus -48.1567 35.9357 56.284
lradius 12.8329
lwrist -51.399
lhand -22.2632 -15.7005
lfingers 7.12502
lthumb 4.15459 14.2387
rfemur -1.66321 23.5321 24.3495
rtibia 1.3631
rfoot -10.3506 -23.814
rtoes 1.3526
lfemur 10.0976 -49.8017 -17.4098
ltibia -4.82048
lfoot -31.6865 58.5165
ltoes 20.939
1682
root -0.796305 17.499 7.76359 7.17719 -1.99272 -7.00264
lowerback 2.26148 1.86758 7.06883
upperback -9.90311 3.27701 1.47313
thorax -11.6624 1.01263 -2.7355
lowerneck -8.59769 -4.87194 -4.62592
upperneck 32.9183 -7.95186 5.257
head 12.772 -3.48285 1.76236
rclavicle -2.70844e-015 1.68967e-014
rhumerus -60.349 -43.3834 -42.1891
rradius 17.6501
rwrist 61.1621
rhand 3.44533 -31.5867
rfingers 7.12502
rthumb 28.886 660.63
lclavicle -2.70844e-015 1.68967e-014
lhumerus -49.0104 36.3563 55.2343
lradius 12.8223
lwrist -51.9966
lhand -22.1969 -15.5711
lfingers 7.12502
lthumb 4.21867 14.3669
rfemur -1.68128 23.6783 24.2335
rtibia 1.37405
rfoot -10.3438 -23.8089
rtoes 1.43299
lfemur 10.1186 -49.6326 -17.5384
ltibia -4.83018
lfoot -31.6218 58.537
ltoes 20.7139
1683
root -0.786667 17.5008 7.76884 7.17759 -2.09402 -6.9269
lowerback 2.13852 1.89496 7.19202
upperback -9.77747 3.29077 1.34085
thorax -11.4268 1.0118 -2.94099
lowerneck -8.7179 -4.86654 -4.6476
upperneck 32.9545 -8.00498 5.45809
head 12.8282 -3.48106 1.83374
rclavicle 1.82136e-014 -8.34896e-015
rhumerus -59.8963 -43.6918 -42.8939
rradius 17.6994
rwrist 61.1745
rhand 3.65902 -31.2652
rfingers 7.12502
rthumb 29.0901 660.987
lclavicle 1.82136e-014 -8.34896e-015
lhumerus -49.3811 37.143 54.1719
lradius 12.7094
lwrist -53.0684
lhand -22.2018 -15.4028
lfingers 7.12502
lthumb 4.21386 14.5353
rfemur -1.66766 23.7609 24.1157
rtibia 1.36759
rfoot -10.3034 -23.8221
rtoes 1.41831
lfemur 10.1767 -49.5305 -17.7063
ltibia -4.85784
lfoot -31.3999 58.6522
ltoes 20.2424
1684
root -0.777182 17.5015 7.77571 7.15619 -2.18882 -6.84641
lowerback 1.9897 1.95425 7.33099
upperback -9.63052 3.34355 1.19144
thorax -11.1457 1.03072 -3.17566
lowerneck -8.84586 -4.88299 -4.62119
upperneck 32.9633 -8.08001 5.6051
head 12.8711 -3.4895 1.87241
rclavicle -8.49804e-015 9.74045e-015
rhumerus -59.6109 -44.1558 -43.3107
rradius 17.7374
rwrist 61.3437
rhand 3.99211 -30.9751
rfingers 7.12502
rthumb 29.4082 661.332
lclavicle -8.49804e-015 9.74045e-015
lhumerus -49.6809 37.9043 53.2026
lradius 12.5622
lwrist -54.2097
lhand -22.2086 -15.1653
lfingers 7.12502
lthumb 4.20738 14.7729
rfemur -1.62205 23.7839 24.0026
rtibia 1.36994
rfoot -10.274 -23.8155
rtoes 1.27276
lfemur 10.4208 -49.7277 -18.0592
ltibia -4.86875
lfoot -31.8019 58.8951
ltoes 20.3434
1685
root -0.766123 17.5008 7.78129 7.16007 -2.24027 -6.78476
lowerback 2.18332 1.92189 7.27006
upperback -9.74435 3.32383 1.22028
thorax -11.4022 1.01497 -3.11943
lowerneck -8.7066 -4.86745 -4.63917
upperneck 33.0113 -8.01995 5.47727
head 12.8516 -3.48415 1.83838
rclavicle 2.17172e-014 2.127e-014
rhumerus -59.5729 -44.0995 -43.3623
rradius 17.6415
rwrist 62.0796
rhand 3.87963 -30.3895
rfingers 7.12502
rthumb 29.3008 661.899
lclavicle 2.17172e-014 2.127e-014
lhumerus -50.7469 38.6924 51.8195
lradius 12.4353
lwrist -55.4057
lhand -22.0856 -15.0827
lfingers 7.12502
lthumb 4.32608 14.8532
rfemur -1.59861 23.849 23.8981
rtibia 1.36639
rfoot -10.2856 -23.8662
rtoes 1.15726
lfemur 10.5143 -49.8211 -18.2552
ltibia -4.86519
lfoot -32.2778 58.8848
ltoes 20.9289
1686
root -0.755239 17.5006 7.78488 7.18187 -2.23726 -6.78933
lowerback 2.39208 1.85713 7.25279
upperback -9.86677 3.26931 1.28459
thorax -11.6837 0.979421 -3.04549
lowerneck -8.66549 -4.83983 -4.63729
upperneck 33.175 -7.93104 5.28548
head 12.8965 -3.46766 1.77866
rclavicle -4.44781e-015 2.36554e-014
rhumerus -59.6815 -44.0397 -43.2054
rradius 17.4263
rwrist 63.5043
rhand 3.33299 -29.6127
rfingers 7.12502
rthumb 28.7787 662.586
lclavicle -4.44781e-015 2.36554e-014
lhumerus -52.0138 39.6541 50.1504
lradius 12.2855
lwrist -56.86
lhand -22.1028 -15.1909
lfingers 7.12502
lthumb 4.30947 14.7453
rfemur -1.6009 23.9325 23.8689
rtibia 1.35356
rfoot -10.2887 -23.9772
rtoes 1.08264
lfemur 10.3853 -49.611 -18.154
ltibia -4.87341
lfoot -32.0782 58.6477
ltoes 21.1417
1687
root -0.74623 17.5007 7.78836 7.2156 -2.18916 -6.78765
lowerback 2.03342 1.9064 7.54031
upperback -9.59666 3.2879 1.09079
thorax -11.1271 0.980269 -3.3957
lowerneck -9.05867 -4.90765 -4.46801
upperneck 33.1614 -8.06505 5.31743
head 12.9776 -3.49269 1.7322
rclavicle -2.48481e-016 1.17283e-014
rhumerus -59.5316 -44.805 -43.3728
rradius 17.287
rwrist 64.4377
rhand 3.10372 -29.378
rfingers 7.12502
rthumb 28.5597 662.783
lclavicle -2.48481e-016 1.17283e-014
lhumerus -52.1609 40.6942 49.0681
lradius 12.0627
lwrist -58.3955
lhand -22.3093 -15.1579
lfingers 7.12502
lthumb 4.11006 14.7822
rfemur -1.63995 23.9179 23.8235
rtibia 1.37276
rfoot -10.302 -24.0263
rtoes 1.0253
lfemur 10.1562 -49.2369 -17.944
ltibia -4.91463
lfoot -31.3192 58.3268
ltoes 20.8653
1688
root -0.738794 17.501 7.79259 7.24169 -2.06599 -6.77264
lowerback 2.39112 1.77795 7.33652
upperback -9.82657 3.15859 1.20089
thorax -11.6408 0.915562 -3.16945
lowerneck -9.05002 -4.84523 -4.31666
upperneck 33.5083 -7.94452 5.04503
head 13.095 -3.45048 1.62026
rclavicle -3.85145e-015 1.18277e-014
rhumerus -59.1922 -44.1858 -43.9426
rradius 17.2923
rwrist 64.1649
rhand 3.21886 -29.5401
rfingers 7.12502
rthumb 28.6697 662.64
lclavicle -3.85145e-015 1.18277e-014
lhumerus -53.2073 40.9217 48.0969
lradius 12.0402
lwrist -59.0436
lhand -22.4183 -14.8331
lfingers 7.12502
lthumb 4.00483 15.109
rfemur -1.64951 23.8472 23.7748
rtibia 1.39242
rfoot -10.4093 -24.048
rtoes 1.19073
lfemur 9.88092 -48.7594 -17.6751
ltibia -4.99262
lfoot -30.1097 57.8858
ltoes 20.2651
1689
root -0.733932 17.5005 7.79648 7.26424 -1.87695 -6.77694
lowerback 2.19826 1.76275 7.42473
upperback -9.69244 3.10822 1.09788
thorax -11.3633 0.89179 -3.31409
lowerneck -9.27051 -4.90356 -4.12116
upperneck 33.5197 -8.07382 5.05542
head 13.147 -3.4762 1.566
rclavicle 1.24737e-014 -2.52457e-014
rhumerus -59.0419 -44.5572 -44.1586
rradius 17.2621
rwrist 64.3567
rhand 3.3003 -29.577
rfingers 7.12502
rthumb 28.7475 662.616
lclavicle 1.24737e-014 -2.52457e-014
lhumerus -53.4111 41.5801 47.3649
lradius 11.8752
lwrist -60.1042
lhand -22.3938 -14.4676
lfingers 7.12502
lthumb 4.02851 15.474
rfemur -1.62467 23.824 23.7725
rtibia 1.37836
rfoot -10.5508 -24.1658
rtoes 1.59171
lfemur 9.45968 -48.1114 -17.255
ltibia -5.01801
lfoot -28.6159 57.2541
ltoes 19.5113
1690
root -0.730447 17.5004 7.79903 7.29432 -1.6525 -6.81347
lowerback 2.04077 1.72455 7.44397
upperback -9.6026 3.03384 1.06048
thorax -11.1685 0.862325 -3.34931
lowerneck -9.3947 -4.95922 -4.03415
upperneck 33.4852 -8.19339 5.12181
head 13.1661 -3.50711 1.55586
rclavicle -8.59744e-015 5.68524e-014
rhumerus -59.0091 -44.8459 -44.19
rradius 17.2251
rwrist 64.7169
rhand 3.28987 -29.4923
rfingers 7.12502
rthumb 28.7375 662.699
lclavicle -8.59744e-015 5.68524e-014
lhumerus -53.0442 41.462 47.8146
lradius 11.759
lwrist -59.6037
lhand -22.6782 -14.2691
lfingers 7.12502
lthumb 3.75383 15.6776
rfemur -1.62444 23.8098 23.8054
rtibia 1.36557
rfoot -10.6522 -24.3451
rtoes 1.90107
lfemur 8.87848 -47.2992 -16.6737
ltibia -4.96314
lfoot -27.233 56.4026
ltoes 18.8897
1691
root -0.727 17.5016 7.80242 7.30502 -1.43267 -6.89412
lowerback 2.07786 1.65937 7.36932
upperback -9.63183 2.95192 1.12554
thorax -11.2398 0.829612 -3.23101
lowerneck -9.4816 -4.96894 -3.93853
upperneck 33.6203 -8.22698 5.08592
head 13.239 -3.50988 1.51906
rclavicle -6.70898e-016 1.55052e-014
rhumerus -59.042 -44.7962 -44.1546
rradius 17.2044
rwrist 65.0045
rhand 3.17426 -29.4445
rfingers 7.12502
rthumb 28.6271 662.728
lclavicle -6.70898e-016 1.55052e-014
lhumerus -52.6681 40.901 48.7135
lradius 11.6992
lwrist -58.6017
lhand -22.967 -14.204
lfingers 7.12502
lthumb 3.47494 15.7474
rfemur -1.60488 23.7379 23.898
rtibia 1.36063
rfoot -10.709 -24.4698
rtoes 1.85913
lfemur 8.41876 -46.5622 -16.1374
ltibia -4.9419
lfoot -25.9692 55.6329
ltoes 18.2371
1692
root -0.724815 17.5021 7.80743 7.27561 -1.2045 -6.96127
lowerback 2.07912 1.62896 7.29769
upperback -9.61564 2.90761 1.15436
thorax -11.23 0.817293 -3.15537
lowerneck -9.60098 -4.97086 -3.79159
upperneck 33.7613 -8.28003 5.10949
head 13.3238 -3.50551 1.49313
rclavicle -1.79652e-014 -2.32578e-014
rhumerus -58.9887 -44.6897 -44.2497
rradius 17.1815
rwrist 65.026
rhand 3.01244 -29.4994
rfingers 7.12502
rthumb 28.4724 662.647
lclavicle -1.79652e-014 -2.32578e-014
lhumerus -52.754 40.9395 48.7036
lradius 11.6855
lwrist -59.4811
lhand -22.5347 -14.2261
lfingers 7.12502
lthumb 3.89242 15.7181
rfemur -1.53903 23.5574 23.9981
rtibia 1.37494
rfoot -10.7268 -24.5091
rtoes 1.66164
lfemur 8.20368 -46.1033 -15.8218
ltibia -4.97973
lfoot -24.764 55.1526
ltoes 17.4404
1693
root -0.725205 17.5018 7.81234 7.20839 -0.914365 -7.02923
lowerback 2.11646 1.58862 7.17
upperback -9.60174 2.84931 1.1846
thorax -11.2475 0.802231 -3.04707
lowerneck -9.67711 -4.98355 -3.60962
upperneck 33.8304 -8.36273 5.16103
head 13.3697 -3.50817 1.46844
rclavicle -3.62782e-015 -7.7526e-015
rhumerus -58.7723 -44.3676 -44.6248
rradius 17.1726
rwrist 64.7744
rhand 2.90332 -29.5922
rfingers 7.12502
rthumb 28.3682 662.537
lclavicle -3.62782e-015 -7.7526e-015
lhumerus -52.4396 40.4776 49.3485
lradius 11.7204
lwrist -59.8338
lhand -22.1205 -14.2379
lfingers 7.12502
lthumb 4.2924 15.6986
rfemur -1.42954 23.3657 24.1292
rtibia 1.40012
rfoot -10.8053 -24.5822
rtoes 1.75185
lfemur 8.09157 -45.8605 -15.5953
ltibia -5.01427
lfoot -23.7791 54.7731
ltoes 16.8417
1694
root -0.728489 17.5018 7.81595 7.13624 -0.608166 -7.12031
lowerback 2.20908 1.53209 6.96639
upperback -9.60518 2.77267 1.25132
thorax -11.3242 0.784629 -2.85744
lowerneck -9.76014 -5.0079 -3.37218
upperneck 33.8844 -8.45616 5.15534
head 13.4051 -3.51589 1.40965
rclavicle -1.74434e-014 2.46493e-014
rhumerus -58.5363 -43.9445 -45.0323
rradius 17.1614
rwrist 64.6076
rhand 2.91537 -29.6769
rfingers 7.12502
rthumb 28.3797 662.454
lclavicle -1.74434e-014 2.46493e-014
lhumerus -51.7546 39.6097 50.6671
lradius 11.7162
lwrist -59.3474
lhand -22.0113 -14.217
lfingers 7.12502
lthumb 4.39789 15.7173
rfemur -1.31249 23.3665 24.3125
rtibia 1.44139
rfoot -11.0413 -24.8046
rtoes 2.32873
lfemur 8.00158 -45.777 -15.371
ltibia -5.02002
lfoot -23.1454 54.4856
ltoes 16.5947
1695
root -0.73257 17.5026 7.81776 7.09539 -0.313523 -7.16612
lowerback 2.28642 1.48537 6.66757
upperback -9.62822 2.70079 1.31768
thorax -11.4153 0.777462 -2.61532
lowerneck -9.76405 -5.07283 -3.20145
upperneck 33.9208 -8.62695 5.24091
head 13.429 -3.55661 1.38882
rclavicle 1.83876e-014 -2.24627e-014
rhumerus -58.4422 -43.5328 -45.2911
rradius 17.176
rwrist 64.568
rhand 2.86877 -29.7289
rfingers 7.12502
rthumb 28.3352 662.395
lclavicle 1.83876e-014 -2.24627e-014
lhumerus -51.3977 39.1664 51.4598
lradius 11.6559
lwrist -59.5766
lhand -21.7954 -14.3149
lfingers 7.12502
lthumb 4.60635 15.615
rfemur -1.25207 23.3744 24.4198
rtibia 1.48346
rfoot -11.2669 -25.0177
rtoes 2.8876
lfemur 7.8885 -45.8082 -15.2149
ltibia -4.98164
lfoot -22.6302 54.3392
ltoes 16.232
